<svg xmlns="http://www.w3.org/2000/svg" height="157.489" width="157.661"><path d="M38.18 146.373c-9.464-5.776-21.292-14.304-27.74-24.496-15.426-25.9-12.328-63.39 0-84 6.457-10.208 17.164-20.941 26.405-26.473C56.19-.479 79.838-2.31 100.472 2.401c5.411 1.185 15.46 3.407 22.105 7.385 8.975 5.373 18.47 13.984 24.704 23.716 1.968 3.072 5.99 14.246 5.99 15.053 0 .423.554 1.838 1.23 3.145 9.069 37.404-1.22 76.76-33.003 96.675-8.775 5.533-18.848 9.036-41.118 9.113-13.899.049-30.736-4.239-42.2-11.115zm61-16.641c5.65-1.615 9.553-3.818 12.091-6.03.826-.718 2.477-1.5 3.15-2.33 3.65-4.495 4.97-5.203 3.714-5.685-.783-.3-5.69 3.523-7.463 4.668-3.076 1.987-10.786 4.26-16.666 4.913-7.807.868-8.387.613-9.27-1.918 2.856-4.094 7.432-14.65-.12-8.218-5.094 3.458-5.66 5.499-9.906 6.762-4.753 1.413-11.722-1.007-16.838-2.768-5.945-2.047-11.263-5.738-18.043-12.524-4.684-4.688-7.803-9.389-10.341-15.582-1.749-4.268-1.86-4.997-1.833-12.043.027-6.847.194-7.966 1.924-12.85 2.171-6.13 4.082-9.646 7.453-13.713 3.698-4.462 13.04-9.463 13.04-6.98 0 .36-2.025 2.548-4.5 4.859-4.32 4.034-9.096 11.583-7.343 12.255 5.294-4.924 9.64-8.094 16.533-9.917l7.774-1.749c6.462-1.454 8.218-.058 9.46.756 1.802 1.18 1.42 2.2-2.24 5.99-3.238 3.355-9.61 12.01-11.46 17.317-3.014 8.649.602 6.735 7.836-.118 5.634-5.337 11.045-9.202 19.004-12.11 5.838-2.132 10.498-.613 12.772 1.176 2.035 1.6 1.994 4.658 4.196 2.805 2.206-1.856 5.242-6.506 9.168-3.79 3.317 2.295 7.101 7.368 10.197 12.762 3.616 6.3 5.127 5.574 4.655-2.137-.373-6.103-3.389-8.956-2.247-8.956 2.687 0 7.561 8.68 10.526 13.719.778 1.128 5.436 12.03 6.272 11.275 1.634-2.235-2.21-16.178-5.14-21.252-.901-1.563-2.815-4.235-4.251-5.938-1.437-1.702-2.612-3.305-2.612-3.561 0-.256-1.547-3.435 6.558-.239 3.036 1.197-.062-3.263-7.03-5.579-11.51-3.581-18.925-1.025-30.53-2.59-9.387-7.987 10.175-27.035.904-28.633-4.708.046-8.514.125-10.15 2.558-2.551 8.537 1.66 18.058.793 21.067-3.196 11.097-5.776-12.325-35.845-7.32-14.487 2.67-27.926 15.125-33.12 30.693-1.982 5.94-2.535 10.66-1.971 16.83 1.575 17.252 11.428 31.43 27.198 39.14 3.68 1.8 7.773 3.457 9.093 3.68 1.32.225 3.685.823 5.255 1.33 4.678 1.508 10.314 1.95 22.045 1.728 9.735-.184 12.573-.4 17.308-1.753z" fill="#927548"/><path d="M58.62 129.167c-16.849-4.471-28.573-13.347-35.1-26.574-8.882-17.997-5.86-37.09 8.206-51.835 9.823-10.298 23.904-15.047 36.653-12.36 5.832 1.23 8.669 2.64 14.173 7.045 2.341 1.873 4.508 3.405 4.815 3.405 1.506 0 2.1-3.051 1.55-7.961-.31-2.778-.575-7.519-.588-10.534-.03-7.203.573-7.864 7.174-7.864h4.815l.22 1.931c.131 1.144-.89 4.722-2.506 8.777-3.384 8.496-3.884 11.822-2.254 14.984 1.122 2.177 1.476 2.365 5.207 2.764 2.203.235 7.518.46 11.813.5 10.947.102 17.58 1.746 21.887 5.426l1.669 1.425-2.002-.5c-2.978-.745-5.847-.7-6.121.096-.133.387 1.156 2.489 2.866 4.671 1.71 2.183 3.965 5.782 5.012 7.997 2.271 4.803 4.764 14.232 4.445 16.817-.194 1.577-.695.924-3.453-4.495-5.636-11.076-12.091-19.91-13.512-18.49-.167.168.213 1.597.845 3.177 1.255 3.137 1.644 10.775.575 11.309-.367.183-2.34-2.15-4.384-5.187-4.196-6.233-8.223-10.665-10.501-11.557-1.822-.713-4.32.398-6.752 3-2.04 2.183-2.44 2.167-4.418-.183-3.663-4.354-10.175-4.521-18.582-.478-4.48 2.155-7.607 4.43-18.2 13.237-2.918 2.426-4.896 3.178-4.896 1.86 0-3.54 6.53-14.74 12.587-21.585 1.885-2.132 3.429-4.292 3.429-4.8 0-1.66-2.836-3.002-6.322-2.994-4.657.01-15.87 2.915-19.604 5.077-1.707.988-4.53 2.98-6.273 4.424-1.743 1.445-3.17 2.357-3.17 2.028 0-1.36 4.442-7.504 8.583-11.87 4.304-4.539 4.38-4.678 2.646-4.878-3.714-.43-11.353 5.17-15.173 11.123-1.152 1.796-3.052 5.78-4.223 8.853-1.992 5.226-2.13 6.15-2.152 14.263-.022 8.607-.003 8.715 2.378 13.68 4.239 8.838 12.15 17.641 20.815 23.163 4.63 2.95 14.88 6.187 19.615 6.194 5.24.008 6.21-.396 11.87-4.936 6.846-5.491 7.601-4.982 3.969 2.673-.888 1.871-1.615 3.756-1.615 4.187 0 1.527 3.205 2.07 8.356 1.417 9.64-1.223 15.24-3.17 21.554-7.495 1.585-1.086 3.003-1.854 3.151-1.706.611.61-4.09 5.412-7.6 7.762-8.57 5.737-13.55 6.794-31.756 6.738-12.11-.037-13.997-.202-19.722-1.721z" fill="#fff"/><path d="M66.215 130.883c-4.464-.578-13.09-2.997-17.53-4.916-17.528-7.578-28.222-21.893-30.146-40.355-1.296-12.436 3.794-25.666 13.648-35.47 8.613-8.57 17.298-12.295 28.838-12.368 9.095-.058 14.165 1.651 20.81 7.016 4.803 3.878 5.355 4.164 6.27 3.248 1.216-1.214 1.372-3.764.574-9.307-.766-5.316-.906-10.676-.348-13.326.402-1.91 2.716-2.989 7.174-3.346 6.06-.486 6.651 1.227 3.27 9.48C95.908 38.54 95 41.579 95 44.169c0 2.385.963 5.046 2.197 6.07.478.397 4.304.678 12.343.906 14.842.42 19.405 1.373 24.507 5.117 2.542 1.865 2.566 2.565.059 1.68-1.07-.377-2.77-.686-3.775-.686-2.611 0-2.41.973 1.193 5.749 1.662 2.203 3.67 5.29 4.463 6.86 2.035 4.031 4.299 11.996 4.597 16.171.239 3.344.21 3.49-.527 2.6-.43-.52-2.12-3.599-3.758-6.843-3.32-6.579-7.775-13.597-10.107-15.926-2.588-2.583-2.988-1.983-1.507 2.258 1.698 4.864 1.857 11.309.28 11.309-.761 0-1.127-.475-5.087-6.606-1.592-2.466-4.178-5.796-5.747-7.4-4.318-4.416-6.064-4.504-10.418-.525l-2.69 2.458-1.713-1.946c-4.274-4.853-9.726-5.102-18.702-.854-4.955 2.345-9.36 5.407-14.628 10.168-8.423 7.613-10.3 7.45-7.053-.613 1.494-3.71 6.373-11.025 10.764-16.135 1.998-2.327 3.574-4.534 3.5-4.905-.073-.371-.733-1.122-1.467-1.669-1.97-1.467-7.093-1.333-14.002.368-6.954 1.711-11.117 3.651-15.73 7.328-2.034 1.621-3.806 2.84-3.938 2.707-.679-.679 3.355-6.6 7.498-11.006 2.541-2.702 4.62-5.117 4.62-5.365 0-.94-3.04-.396-5.695 1.02-6.202 3.305-10.955 9.18-14.273 17.639-2.377 6.06-2.823 8.972-2.576 16.83.203 6.492.28 6.92 1.897 10.656 2.561 5.916 6.28 11.106 11.81 16.486 7.77 7.557 13.937 11.051 23.592 13.366 7.079 1.697 10.492 1.162 14.853-2.327 4.255-3.404 7.513-5.7 8.087-5.7 1.059 0 .481 2.703-1.36 6.37-1.039 2.066-1.888 3.905-1.888 4.086 0 2.007 5.505 2.39 13.078.91 6.604-1.292 11.085-3.053 15.932-6.261 2.33-1.543 4.311-2.584 4.401-2.314.322.966-4.416 5.762-8.144 8.245-4.206 2.8-8.653 4.717-13.403 5.777-3.678.821-25.371 1.295-30.267.661z" fill="#fff"/></svg>